<?xml version="1.0" standalone="no"?>
<!DOCTYPE svg PUBLIC "-//W3C//DTD SVG 20010904//EN"
 "http://www.w3.org/TR/2001/REC-SVG-20010904/DTD/svg10.dtd">
<svg version="1.0" xmlns="http://www.w3.org/2000/svg"
 width="341.000000pt" height="313.000000pt" viewBox="0 0 341.000000 313.000000"
 preserveAspectRatio="xMidYMid meet">

<g transform="translate(0.000000,313.000000) scale(0.100000,-0.100000)"
fill="#000000" stroke="none">
<path d="M1890 3084 c-25 -9 -56 -25 -69 -35 -19 -15 -41 -19 -115 -20 -50 0
-154 -6 -231 -13 -137 -12 -141 -13 -198 -51 -48 -32 -56 -40 -40 -46 10 -3
-25 -9 -77 -13 -52 -4 -128 -9 -167 -12 l-73 -6 -56 -61 c-31 -34 -67 -82 -81
-107 -14 -25 -38 -63 -53 -85 -55 -79 -60 -104 -60 -280 0 -157 3 -190 37
-360 9 -44 18 -98 20 -120 3 -22 16 -63 30 -92 23 -46 32 -54 93 -82 37 -17
105 -44 151 -60 46 -16 120 -43 164 -59 l80 -30 -34 -28 c-88 -75 -108 -95
-127 -131 -11 -21 -41 -76 -67 -123 -48 -90 -113 -264 -153 -412 -13 -48 -33
-107 -45 -130 -23 -45 -34 -81 -50 -163 -5 -27 -16 -66 -23 -85 -33 -86 -61
-225 -55 -269 6 -40 29 -38 29 3 0 57 27 183 56 256 7 19 18 58 23 85 16 82
27 118 50 163 12 23 32 82 45 130 40 148 105 322 153 412 26 47 53 97 60 111
12 25 45 58 137 137 44 37 41 37 97 17 100 -36 220 -47 536 -52 l311 -5 21
-67 c12 -36 37 -115 56 -176 44 -139 58 -270 53 -473 -4 -140 -8 -170 -38
-272 -18 -63 -36 -123 -41 -132 -5 -10 -9 -26 -9 -35 0 -10 -11 -55 -24 -100
-22 -76 -22 -83 -6 -83 13 0 22 19 38 79 12 43 22 86 22 95 0 9 4 24 9 34 5 9
23 69 41 132 30 103 34 131 38 277 7 257 -6 335 -107 658 l-19 60 72 5 c52 4
81 12 103 28 17 12 43 22 57 22 15 0 43 9 64 19 49 25 197 175 217 220 9 20
22 47 29 61 42 80 48 129 44 371 -5 244 -6 253 -57 358 -34 72 -143 182 -196
199 -22 7 -80 33 -130 57 -49 24 -108 48 -131 54 -23 6 -58 24 -79 41 -21 16
-50 30 -64 30 -14 0 -39 9 -56 20 -16 11 -37 20 -45 20 -9 0 -32 11 -52 25
-20 14 -61 29 -90 33 l-53 8 54 17 c30 9 68 17 84 17 44 0 27 25 -19 27 -21 2
-59 -5 -84 -13z m82 -111 c13 -11 42 -26 64 -32 23 -6 47 -18 54 -26 7 -8 27
-15 45 -15 18 0 39 -7 46 -17 17 -20 107 -63 134 -63 11 0 45 -14 75 -31 30
-17 83 -42 118 -55 85 -33 102 -45 158 -116 100 -128 114 -184 114 -459 0
-173 -3 -212 -19 -259 -39 -114 -59 -147 -140 -228 -88 -89 -133 -122 -168
-122 -12 0 -44 -12 -70 -26 l-48 -26 -380 5 c-397 5 -459 10 -615 54 -107 29
-385 130 -473 171 -66 30 -94 70 -108 152 -5 25 -13 70 -19 100 -28 140 -32
176 -37 343 -5 188 2 232 46 282 10 11 29 40 42 65 13 25 27 47 32 48 4 2 7 8
7 14 0 5 26 36 57 69 l56 59 66 0 c36 0 73 4 81 10 9 5 19 5 28 -2 9 -8 16 -8
24 0 7 7 33 12 60 12 61 0 100 17 93 41 -16 48 171 78 477 75 166 -1 178 -2
200 -23z"/>
<path d="M1112 2665 c-45 -21 -56 -32 -77 -77 -19 -40 -25 -70 -25 -120 0 -61
3 -70 29 -97 16 -17 54 -42 83 -57 45 -23 69 -28 164 -32 97 -3 115 -2 140 14
62 41 64 44 64 123 0 63 -4 81 -30 126 -16 29 -52 73 -79 99 l-50 46 -83 0
c-67 0 -93 -5 -136 -25z m251 -45 c25 -23 49 -51 53 -63 4 -12 15 -33 26 -47
15 -21 18 -40 16 -90 -3 -61 -5 -66 -38 -88 -32 -22 -43 -23 -130 -20 -73 3
-107 10 -145 28 l-50 23 42 8 c24 4 61 22 82 39 39 31 40 34 46 114 4 50 3 92
-4 109 -10 26 -9 27 23 27 25 0 45 -10 79 -40z"/>
<path d="M1764 2635 c-62 -37 -94 -86 -101 -151 l-6 -54 61 -60 c33 -33 64
-60 68 -60 4 0 15 -6 23 -14 29 -25 124 -45 248 -52 l121 -7 16 31 c19 37 22
182 5 199 -6 6 -19 40 -28 75 -11 39 -22 62 -30 60 -7 -1 -31 11 -54 28 -40
29 -43 30 -161 30 -111 0 -125 -2 -162 -25z m293 -23 c10 -11 26 -22 35 -25
19 -7 42 -40 53 -75 7 -23 6 -23 -17 -9 -12 8 -49 17 -80 21 -56 6 -57 6 -77
-28 -36 -58 -20 -178 26 -205 28 -17 -43 -14 -101 4 -64 19 -101 43 -160 104
-46 47 -48 52 -42 90 7 45 33 81 86 117 31 22 45 24 147 24 96 0 115 -3 130
-18z"/>
<path d="M1520 2157 c-40 -63 -50 -126 -26 -162 9 -14 21 -25 27 -25 6 0 26
-7 45 -16 19 -9 37 -14 41 -11 10 10 -18 37 -54 52 -18 8 -36 21 -39 30 -10
24 4 79 26 102 10 12 22 32 25 46 12 45 -12 37 -45 -16z"/>
<path d="M1234 2007 c-10 -26 15 -130 40 -168 33 -49 96 -99 186 -146 88 -47
156 -63 305 -72 101 -6 114 -14 35 -23 -37 -4 -26 -22 15 -26 24 -2 48 4 71
19 45 28 139 153 153 205 12 43 15 197 4 208 -4 3 -34 -20 -67 -53 -40 -39
-80 -67 -116 -81 -30 -12 -64 -27 -75 -33 -59 -31 -309 -10 -384 34 -49 29
-131 100 -131 114 0 7 -7 18 -15 25 -12 10 -16 9 -21 -3z m784 -130 c-7 -77
-30 -129 -81 -179 -45 -43 -84 -52 -198 -45 -107 7 -174 23 -258 65 -100 49
-161 99 -190 156 -12 26 -21 49 -19 51 2 2 21 -12 43 -31 59 -52 101 -70 204
-89 103 -19 272 -17 279 4 2 6 11 11 21 11 9 0 34 9 56 20 22 11 45 20 51 20
6 0 27 18 45 39 19 22 38 40 43 40 5 1 6 -27 4 -62z"/>
<path d="M730 1537 c0 -276 -6 -394 -22 -417 -10 -13 -18 -34 -18 -45 0 -24
-16 -52 -25 -43 -4 4 -10 39 -13 78 -4 39 -11 69 -17 68 -17 -5 -11 -139 9
-180 18 -37 43 -50 50 -25 2 6 9 32 16 57 7 25 19 59 29 75 13 25 16 63 16
229 0 151 -3 200 -12 203 -7 3 -13 3 -13 0z"/>
<path d="M2706 1522 c-2 -4 -8 -47 -12 -95 l-7 -87 -57 0 c-44 0 -61 -4 -75
-20 -17 -19 -17 -20 1 -27 10 -4 19 -2 22 5 2 7 25 12 58 12 l54 0 0 -58 c0
-77 13 -94 70 -90 40 3 46 7 71 48 16 26 28 60 28 83 1 32 4 37 26 37 23 0 24
-2 27 -82 2 -54 7 -83 16 -86 9 -3 12 18 12 82 l0 86 66 0 c48 0 65 3 62 13
-3 7 -28 13 -66 15 l-61 3 -3 62 c-3 55 -6 62 -24 65 -27 4 -59 -35 -76 -89
-9 -30 -16 -39 -33 -39 -13 0 -37 -3 -55 -6 l-32 -7 7 85 c5 56 4 88 -3 92 -6
3 -13 3 -16 -2z m204 -112 c0 -47 -2 -50 -25 -50 -14 0 -25 3 -25 7 0 10 41
93 46 93 2 0 4 -22 4 -50z m-80 -107 c0 -16 -11 -46 -23 -68 -18 -33 -28 -40
-52 -40 -30 0 -30 1 -33 62 -3 61 -2 62 25 66 74 11 83 9 83 -20z"/>
<path d="M586 1343 c-13 -13 -5 -71 12 -86 22 -20 96 -24 90 -4 -3 6 -15 14
-29 15 -33 5 -49 20 -49 48 0 24 -12 38 -24 27z"/>
<path d="M837 1343 c-11 -18 -12 -166 -1 -170 16 -5 24 30 24 104 0 55 -11 86
-23 66z"/>
<path d="M2615 1160 c-3 -5 -3 -14 0 -20 3 -5 -2 -10 -12 -10 -11 0 -28 -6
-39 -14 -15 -12 -17 -17 -6 -27 9 -10 15 -10 24 -1 19 19 66 15 78 -7 16 -32
12 -58 -11 -64 -23 -6 -17 -27 7 -27 10 0 14 -14 14 -55 0 -54 -11 -83 -54
-147 -17 -26 -15 -48 5 -48 5 0 13 8 16 18 4 9 9 19 13 22 24 20 50 97 50 150
l0 60 103 0 c66 0 107 -4 115 -12 17 -17 61 9 69 41 3 14 13 32 20 40 8 7 13
25 11 40 l-3 26 -174 3 c-159 2 -177 4 -193 22 -21 23 -24 24 -33 10z m375
-69 c0 -5 -7 -14 -15 -21 -8 -7 -15 -21 -15 -31 0 -22 -35 -44 -45 -29 -3 6
-51 10 -110 10 l-103 0 -4 40 -4 40 148 0 c82 0 148 -4 148 -9z"/>
</g>
</svg>
